<svg xmlns="http://www.w3.org/2000/svg" width="64" height="64" viewBox="0 0 64 64"><path d="M48.641 22.166a1 1-75.001 1 0 .518-1.932 1 1-75.001 1 0-.518 1.932zM51.9 25.2c0-.1 0-.2-.1-.3l-.4-.9c-.2-.5-.8-.8-1.3-.6-.5.2-.8.8-.6 1.3l.2.5c1.4 3.6 1.6 7.6.6 11.6C47.6 47 37.2 53.1 27.1 50.3 17 47.6 10.9 37.2 13.7 27.1 16.4 17 26.8 10.9 36.9 13.7c3.3.9 6.2 2.6 8.5 4.9l.5.5c.4.4 1 .4 1.4 0 .4-.4.4-1 0-1.4l-.1-.1-.3-.3-.2-.3-.1-.1c-2.5-2.4-5.6-4.2-9.1-5.1-11.2-3-22.7 3.6-25.7 14.8-3 11.2 3.6 22.7 14.8 25.7s22.7-3.6 25.7-14.8c1.1-4.2.9-8.4-.4-12.3zm-9.9.6L31.5 36.3 26.1 31c-.4-.4-1-.4-1.4 0-.4.4-.4 1 0 1.4l6.1 6.1c.2.2.5.3.7.3.3 0 .5-.1.7-.3l11.3-11.3c.4-.4.4-1 0-1.4-.4-.4-1.1-.4-1.5 0z"/></svg>