<svg xmlns="http://www.w3.org/2000/svg" xmlns:xlink="http://www.w3.org/1999/xlink" width="64" height="64" viewBox="0 0 64 64"><defs><style>.a{fill:url(#a)}.b,.c,.e,.f,.g,.h{fill-rule:evenodd}.b{fill:url(#b)}.c{fill:url(#c)}.d,.e{fill:#ececec}.f{fill:url(#d)}.g{fill:url(#e)}.h{fill:url(#f)}</style><linearGradient id="a" x1="23.234" y1="52.399" x2="21.869" y2="24.411" gradientUnits="userSpaceOnUse"><stop offset="0" stop-color="#31aae1"/><stop offset="1" stop-color="#0083be"/></linearGradient><linearGradient id="b" x1="42.326" y1="52.654" x2="35.965" y2="-7.877" gradientUnits="userSpaceOnUse"><stop offset="0" stop-color="#ea7207"/><stop offset=".201" stop-color="#ec7906"/><stop offset=".489" stop-color="#f08c05"/><stop offset=".827" stop-color="#f7aa02"/><stop offset="1" stop-color="#fbbd00"/></linearGradient><linearGradient id="c" x1="53.733" y1="52.16" x2="50.559" y2="29.63" xlink:href="#a"/><linearGradient id="d" x1="22.458" y1="19.674" x2="22.437" y2="16.937" xlink:href="#a"/><linearGradient id="e" x1="22.458" y1="16.404" x2="22.434" y2="14.177" xlink:href="#a"/><linearGradient id="f" x1="22.456" y1="13.712" x2="22.345" y2="10.391" xlink:href="#a"/></defs><title>city_color</title><rect class="a" x="11.602" y="19.744" width="21.714" height="33.515" rx="2.124" ry="2.124"/><path class="b" d="M31.35 13.428h14.318a2.131 2.131 0 0 1 2.124 2.124v35.583a2.133 2.133 0 0 1-2.124 2.124h-10.98a4.613 4.613 0 0 0 .516-2.124V21.868a4.648 4.648 0 0 0-4.642-4.641h-1.336a7.434 7.434 0 0 1 .181-2.532 2.132 2.132 0 0 1 1.943-1.267z"/><path class="c" d="M49.831 25.583h3.226a2.13 2.13 0 0 1 2.124 2.124v23.428a2.13 2.13 0 0 1-2.124 2.124h-4.084a3.058 3.058 0 0 0 .858-2.124V25.583z"/><path class="d" d="M14.33 22.541h6.825a.283.283 0 0 1 .283.284v2.33a.283.283 0 0 1-.283.283H14.33a.283.283 0 0 1-.283-.283v-2.33a.283.283 0 0 1 .283-.284z"/><path class="e" d="M35.2 21.912h2.484a.284.284 0 0 1 .283.283v2.33a.284.284 0 0 1-.283.283H35.2v-2.896zM34.43 16.897h3.213a.284.284 0 0 1 .283.283v2.33a.284.284 0 0 1-.283.284h-2.935a4.34 4.34 0 0 0-.56-.869V17.18a.284.284 0 0 1 .283-.283z"/><rect class="d" x="40.407" y="21.912" width="3.778" height="2.896" rx=".283" ry=".283"/><path class="d" d="M40.69 16.876h3.212a.283.283 0 0 1 .283.283v2.33a.283.283 0 0 1-.283.284H40.69a.283.283 0 0 1-.283-.283v-2.33a.283.283 0 0 1 .283-.284zM14.33 32.612h6.825a.283.283 0 0 1 .283.283v2.33a.283.283 0 0 1-.283.284H14.33a.283.283 0 0 1-.283-.284v-2.33a.283.283 0 0 1 .283-.283z"/><path class="e" d="M35.2 31.983h2.484a.284.284 0 0 1 .283.283v2.33a.284.284 0 0 1-.283.283H35.2v-2.896z"/><rect class="d" x="40.407" y="31.983" width="3.778" height="2.897" rx=".283" ry=".283"/><path class="d" d="M14.33 42.683h6.825a.283.283 0 0 1 .283.283v2.33a.283.283 0 0 1-.283.283H14.33a.283.283 0 0 1-.283-.283v-2.33a.283.283 0 0 1 .283-.283z"/><path class="e" d="M35.2 42.054h2.484a.284.284 0 0 1 .283.283v2.33a.284.284 0 0 1-.283.283H35.2v-2.896z"/><rect class="d" x="40.407" y="42.054" width="3.778" height="2.897" rx=".283" ry=".283"/><path class="d" d="M14.33 27.577h6.825a.283.283 0 0 1 .283.283v2.33a.283.283 0 0 1-.283.283H14.33a.283.283 0 0 1-.283-.283v-2.33a.283.283 0 0 1 .283-.283z"/><path class="e" d="M35.2 26.947h2.484a.284.284 0 0 1 .283.284v2.33a.284.284 0 0 1-.283.283H35.2v-2.897z"/><path class="d" d="M40.69 26.947h3.212a.283.283 0 0 1 .283.283v2.33a.283.283 0 0 1-.283.284H40.69a.283.283 0 0 1-.283-.284v-2.33a.283.283 0 0 1 .283-.283zM14.33 37.648h6.825a.283.283 0 0 1 .283.283v2.33a.283.283 0 0 1-.283.283H14.33a.283.283 0 0 1-.283-.283v-2.33a.283.283 0 0 1 .283-.283z"/><path class="e" d="M35.2 37.018h2.484a.284.284 0 0 1 .283.283v2.33a.284.284 0 0 1-.283.284H35.2v-2.897z"/><rect class="d" x="40.407" y="37.018" width="3.778" height="2.896" rx=".283" ry=".283"/><path class="d" d="M14.33 47.718h6.825a.283.283 0 0 1 .283.284v2.33a.283.283 0 0 1-.283.283H14.33a.283.283 0 0 1-.283-.283v-2.33a.283.283 0 0 1 .283-.284z"/><path class="e" d="M35.2 47.089h2.484a.284.284 0 0 1 .283.283v2.33a.284.284 0 0 1-.283.283H35.2V47.09z"/><rect class="d" x="40.407" y="47.089" width="3.778" height="2.897" rx=".283" ry=".283"/><path class="d" d="M23.644 22.541h6.825a.283.283 0 0 1 .283.284v2.33a.283.283 0 0 1-.283.283h-6.825a.283.283 0 0 1-.283-.283v-2.33a.283.283 0 0 1 .283-.284z"/><rect class="d" x="23.361" y="32.612" width="7.391" height="2.897" rx=".283" ry=".283"/><rect class="d" x="23.361" y="42.683" width="7.391" height="2.897" rx=".283" ry=".283"/><rect class="d" x="23.361" y="27.577" width="7.391" height="2.897" rx=".283" ry=".283"/><rect class="d" x="23.361" y="37.648" width="7.391" height="2.896" rx=".283" ry=".283"/><path class="d" d="M23.644 47.718h6.825a.283.283 0 0 1 .283.284v2.33a.283.283 0 0 1-.283.283h-6.825a.283.283 0 0 1-.283-.283v-2.33a.283.283 0 0 1 .283-.284z"/><path class="f" d="M17.413 16.482h10.091a.486.486 0 0 1 .392.392l1.26 2.87H15.761l1.259-2.87a.485.485 0 0 1 .392-.392z"/><path class="g" d="M19.38 13.807h6.157a.34.34 0 0 1 .23.32l.63 2.335H18.52l.63-2.336a.34.34 0 0 1 .23-.319z"/><path class="h" d="M22.134 9.8h.65a1.032 1.032 0 0 1 .943.943l.63 3.053H20.56l.63-3.053a1.032 1.032 0 0 1 .943-.944z"/></svg>
