<svg xmlns="http://www.w3.org/2000/svg" width="64" height="64" viewBox="0 0 64 64"><path d="M48 44a.997.997 0 0 0-1 1v3.998A2.001 2.001 0 0 1 45.008 51H18.992A2 2 0 0 1 17 48.997V26.991a1 1 0 0 0-2 0v22.006A4 4 0 0 0 18.992 53h26.016A4 4 0 0 0 49 48.998V45a.997.997 0 0 0-1-1zm.414-26.114l-6.3-6.3-.586-.586H19.01A4.001 4.001 0 0 0 15 15.003v7.006a1 1 0 0 0 2 0v-7.006A2.001 2.001 0 0 1 19.01 13H39v6a1.995 1.995 0 0 0 2 2h6v16.01a1 1 0 0 0 2 0V18.471zM46.672 19H41v-5.672zM47 41a1 1 0 1 0 2 0 1 1 0 1 0-2 0zm-22-7h14a1 1 0 1 0 0-2H25a1 1 0 1 0 0 2zm0-6h14a1 1 0 1 0 0-2H25a1 1 0 1 0 0 2zm-.003 12h6.006a1 1 0 0 0 0-2h-6.006a1 1 0 0 0 0 2zM37 36a3 3 0 1 0 3 3 3 3 0 0 0-3-3zm0 4a1 1 0 1 1 1-1 1 1 0 0 1-1 1z"/></svg>