<svg xmlns="http://www.w3.org/2000/svg" width="64" height="64" viewBox="0 0 64 64"><path d="M13.995 41.29l.014-.8c.208-6.789 4.156-14.342 9.82-18.189a33.12 33.12 0 0 0 1.743.454 31.691 31.691 0 0 0 4.858.742 21.493 21.493 0 0 0 8.956-1.176 20.464 20.464 0 0 1 4.437 4.142q.024.039.053.075l.617.79a1 1 0 0 0 1.674-1.08v-.001a1.01 1.01 0 0 0-.098-.15l-.254-.326a23.266 23.266 0 0 0-4.72-4.712l5.258-4.883c3.15-2.925 1.332-6.19-2.812-5.095l-1.354.358a5.901 5.901 0 0 1-4.838-1.256l-1.522-1.471a6.157 6.157 0 0 0-8.521 0l-1.522 1.47a5.894 5.894 0 0 1-4.838 1.257l-1.354-.358c-4.146-1.096-5.957 2.174-2.812 5.095l5.298 4.92A26.328 26.328 0 0 0 12.05 39.623a1.02 1.02 0 0 0-.03.229l-.01.584-.003.1-.012.718a1 1 0 1 0 2 .035zm5.086-28.275l1.354.358a7.853 7.853 0 0 0 6.739-1.752l1.522-1.47a4.157 4.157 0 0 1 5.741 0l1.522 1.47a7.86 7.86 0 0 0 6.74 1.752l1.353-.358c2.136-.565 2.561.19.94 1.696l-6.063 5.629a18.857 18.857 0 0 1-8.359 1.162 29.723 29.723 0 0 1-4.55-.697 31.147 31.147 0 0 1-1.833-.48l-6.046-5.614c-1.617-1.502-1.197-2.261.94-1.696zm29.53 17.335l-.012.002-.226-.484a1 1 0 0 0-1.813.844h-.003l.045.09.382.82a1.021 1.021 0 0 0 .077.136 22.819 22.819 0 0 1 2.145 9.295c0 9.722-7.881 13.897-17.603 13.897-6.32 0-11.862-1.764-14.967-5.67l-.015.01-.31-.443a1.005 1.005 0 0 0-1.388-.24.993.993 0 0 0-.25 1.387l.296.422-.002.002.034.045.214.306a.962.962 0 0 0 .228.23c3.388 3.9 9.077 5.951 16.16 5.951 11.705 0 19.603-5.6 19.603-15.897a24.955 24.955 0 0 0-2.595-10.703zm-35.99 15.144a1 1 0 1 0 2 0 1 1 0 1 0-2 0zm22.857.664a2.719 2.719 0 0 0 2.294-1.015 4.912 4.912 0 0 0 .782-3.028 4.821 4.821 0 0 0-.795-2.975 2.698 2.698 0 0 0-2.28-1.041q-3.033 0-3.033 4.016a4.891 4.891 0 0 0 .79 3.002 2.649 2.649 0 0 0 2.242 1.041zm-.62-5.682q.198-.54.638-.54.843 0 .843 2.197 0 2.215-.843 2.215-.44 0-.638-.55a5.24 5.24 0 0 1-.197-1.665 5.154 5.154 0 0 1 .197-1.657zm-6.086-.457a4.93 4.93 0 0 0 .782-3.037 4.821 4.821 0 0 0-.795-2.975 2.698 2.698 0 0 0-2.28-1.041q-3.033 0-3.033 4.016a4.908 4.908 0 0 0 .79 3.01 2.649 2.649 0 0 0 2.242 1.042 2.719 2.719 0 0 0 2.294-1.015zm-2.276-.804q-.44 0-.638-.55A5.24 5.24 0 0 1 25.661 37a5.154 5.154 0 0 1 .197-1.657q.198-.54.638-.54.843 0 .843 2.197 0 2.215-.843 2.215zm9.105-6.065h-2.109L26.364 46h2.109l7.128-12.85z"/></svg>