<svg xmlns="http://www.w3.org/2000/svg" width="64" height="64" viewBox="0 0 64 64"><path d="M45.961 38.575l.702-.144a3.015 3.015 0 0 0 2.35-3.517l-.357-1.857 1.565-1.06a3.015 3.015 0 0 0 .825-4.148l-1.04-1.578 1.04-1.58a3.015 3.015 0 0 0-.825-4.147l-1.565-1.06.357-1.857a3.015 3.015 0 0 0-2.35-3.516l-1.852-.381-.38-1.852a3.015 3.015 0 0 0-3.517-2.35l-1.857.358-1.06-1.566a3.015 3.015 0 0 0-4.148-.825l-1.578 1.04-1.58-1.04a3.014 3.014 0 0 0-4.147.825l-1.06 1.566-1.857-.358a3.014 3.014 0 0 0-3.516 2.35l-.381 1.852-1.852.38a3.015 3.015 0 0 0-2.35 3.517l.358 1.857-1.566 1.06a3.015 3.015 0 0 0-.825 4.148l1.04 1.579-1.04 1.578a3.015 3.015 0 0 0 .825 4.148l1.566 1.06-.358 1.857a3.015 3.015 0 0 0 2.35 3.517l1.852.38.38 1.852a3.014 3.014 0 0 0 3.517 2.35l1.857-.357 1.029 1.519-4.624 10.384c-.223.5-.656.531-.963.077l-1.518-2.252a1.754 1.754 0 0 0-1.55-.69l-2.69.378c-.547.077-.805-.277-.587-.767l2.164-4.86.005-.012 1.635-3.671a1 1 0 0 0-1.827-.814l-.69 1.548-3.114 6.996a2.49 2.49 0 0 0 2.693 3.56l2.442-.343 1.38 2.045a2.487 2.487 0 0 0 4.447-.382l4.442-9.976a2.992 2.992 0 0 0 2.534-.35l1.579-1.04 1.578 1.04a2.986 2.986 0 0 0 2.06.456l4.395 9.87a2.487 2.487 0 0 0 4.448.382l1.38-2.045 2.442.343a2.49 2.49 0 0 0 2.693-3.56zm-12.858 3.584a1.643 1.643 0 0 0-1.665 0l-1.847 1.217A1.015 1.015 0 0 1 28.2 43.1l-1.24-1.831a1.643 1.643 0 0 0-1.538-.637l-2.173.418a1.015 1.015 0 0 1-1.18-.788l-.445-2.167a1.643 1.643 0 0 0-1.176-1.177l-2.168-.446a1.015 1.015 0 0 1-.788-1.179l.418-2.172a1.643 1.643 0 0 0-.637-1.538l-1.831-1.24a1.015 1.015 0 0 1-.277-1.392l1.217-1.847a1.643 1.643 0 0 0 0-1.665l-1.217-1.847a1.014 1.014 0 0 1 .277-1.391l1.831-1.24a1.643 1.643 0 0 0 .637-1.538l-.418-2.173a1.015 1.015 0 0 1 .788-1.18l2.168-.445a1.643 1.643 0 0 0 1.176-1.177l.446-2.167a1.015 1.015 0 0 1 1.18-.788l2.172.418a1.643 1.643 0 0 0 1.537-.637L28.2 9.442a1.015 1.015 0 0 1 1.391-.277l1.847 1.217a1.643 1.643 0 0 0 1.665 0l1.847-1.217a1.015 1.015 0 0 1 1.391.277l1.24 1.831a1.643 1.643 0 0 0 1.539.637l2.172-.418a1.015 1.015 0 0 1 1.18.788l.445 2.167a1.643 1.643 0 0 0 1.177 1.177l2.167.446a1.015 1.015 0 0 1 .788 1.18l-.418 2.172a1.643 1.643 0 0 0 .637 1.537l1.831 1.241a1.015 1.015 0 0 1 .277 1.391l-1.217 1.847a1.643 1.643 0 0 0 0 1.665l1.217 1.847a1.014 1.014 0 0 1-.277 1.391l-1.831 1.24a1.643 1.643 0 0 0-.637 1.539l.418 2.172a1.015 1.015 0 0 1-.788 1.18l-2.167.445a1.643 1.643 0 0 0-1.177 1.177l-.446 2.167a1.015 1.015 0 0 1-1.179.788l-2.172-.418a1.643 1.643 0 0 0-1.538.637l-1.24 1.831a1.015 1.015 0 0 1-1.392.277zm15.75 9.913l-2.69-.379a1.754 1.754 0 0 0-1.55.69l-1.52 2.253c-.305.454-.739.423-.962-.077l-4.44-9.972a2.98 2.98 0 0 0 .306-.366l1.06-1.565 1.857.357a3.015 3.015 0 0 0 3.517-2.35l.085-.416 4.924 11.058c.218.49-.04.844-.588.767zm-7.919-30.816a1 1 0 1 0 2 0 1 1 0 1 0-2 0zM44 26.001V25a1 1 0 0 0-2 0v1.002a1.023 1.023 0 0 0 .012.153l-.013.008a10 10 0 1 1-3.577-7.828l.001-.001.625.582a1 1 0 0 0 1.364-1.463l-.177-.165.01-.006q-.226-.214-.464-.416l-.102-.096a1.014 1.014 0 0 0-.161-.123A12 12 0 1 0 44 26.001z"/></svg>