<svg xmlns="http://www.w3.org/2000/svg" width="64" height="64" viewBox="0 0 64 64"><path d="M8 25a1 1 0 1 0 2 0 1 1 0 1 0-2 0zm46.362 8.733l-2.591-.864a1.77 1.77 0 0 1-.817-.701l-3.1-6.227a2.766 2.766 0 0 0-2.336-1.441H40V18a2.998 2.998 0 0 0-2.997-3H10.996A2.994 2.994 0 0 0 8 18v3.001a1 1 0 0 0 2 0v-3A.995.995 0 0 1 10.997 17h26.007A.998.998 0 0 1 38 18v17.001a1 1 0 0 0 2 0V26.5h5.518a.82.82 0 0 1 .545.332l3.1 6.227a3.717 3.717 0 0 0 1.975 1.708l2.591.864A.51.51 0 0 1 54 36v5H40v-2.001a1 1 0 0 0-2 0V41H10V28.999a1 1 0 0 0-2 0V43h46v5.01a.997.997 0 0 1-1.002.99H51.9a5 5 0 0 0-9.798 0H21.899a5 5 0 0 0-9.798 0H9a1 1 0 0 0 0 2h3.1a5 5 0 0 0 9.8 0h20.2a5 5 0 0 0 9.8 0h1.098A2.997 2.997 0 0 0 56 48.01V36a2.48 2.48 0 0 0-1.638-2.268zM17 53a2.994 2.994 0 0 1-2.898-2.263c-.015-.058-.034-.114-.045-.173a2.824 2.824 0 0 1 0-1.128c.011-.059.03-.115.045-.173a2.987 2.987 0 0 1 5.796 0c.015.058.034.114.045.173a2.824 2.824 0 0 1 0 1.128c-.011.059-.03.115-.045.173A2.994 2.994 0 0 1 17 53zm30 0a2.994 2.994 0 0 1-2.898-2.263c-.015-.058-.034-.114-.045-.173a2.824 2.824 0 0 1 0-1.128c.011-.059.03-.115.045-.173a2.987 2.987 0 0 1 5.796 0c.015.058.034.114.045.173a2.824 2.824 0 0 1 0 1.128c-.011.059-.03.115-.045.173A2.994 2.994 0 0 1 47 53z"/></svg>